<svg xmlns="http://www.w3.org/2000/svg" viewBox="0 0 1004 1003.92"><defs><style>.cls-1{fill:none;stroke:#fff;stroke-miterlimit:10;stroke-width:24px;}</style></defs><title>Asset 1</title><g id="Layer_2" data-name="Layer 2"><g id="Layer_1-2" data-name="Layer 1"><path class="cls-1" d="M177.57,79.76c-13.87,37-26.13,68.45-27.06,69.83-.92,1.16-32.37,13.64-70.06,27.75C42.76,191.21,12,203.24,12,203.93s30.52,12.49,67.75,26.36c37,13.87,68.68,26.36,70.07,27.75s13.87,33.07,27.75,70.07c13.87,37.23,25.67,67.75,26.36,67.75s12.49-30.52,26.36-67.75c13.64-37,26.13-68.68,27.75-70.07,1.39-1.39,33.07-13.87,70.3-27.75,37-13.87,67.52-25.67,67.52-26.36s-30.52-12.49-67.75-26.36c-37-13.87-68.45-25.9-69.83-26.82-1.16-1.16-13.64-32.6-27.75-70.3C216.66,42.76,204.63,12,203.94,12S191.44,42.54,177.57,79.76Z"/><path class="cls-1" d="M705.71,54.33c0,.23,3.7,9.71,8.09,21.27,45.09,114.93,44.17,247.89-2.54,363C647.9,594.27,509.39,707.81,345,739c-52.26,9.94-122.56,10.64-173.43,1.62-31-5.32-74.92-17.8-99.2-27.75-9.48-3.93-17.57-6.71-18.27-6.24-1.62,1.85,19.42,39.77,35.84,64.51,40,60.59,96.43,114.46,158.17,151.46,160.94,96.66,366.51,91.8,523.06-12C915,815.09,999.15,650.45,991.52,480c-7.63-174.58-103.13-327-258.29-413.21C719.36,59.18,705.71,52.94,705.71,54.33Z"/><path class="cls-1" d="M481.18,311.93l-17.34,52.72-54.11,18.27-54.34,18.27,52.49,17.57c28.9,9.71,53.41,18.5,54.57,19.89,1.16,1.16,9.94,25.44,19.19,53.65,9.48,28.44,17.57,51.57,18.27,51.57s8.79-23.12,18.27-51.57c9.25-28.21,18-52.49,19.19-53.65,1.16-1.39,25.67-10.17,54.57-19.89l52.49-17.57-54.34-18.27L536,364.65l-17.34-52.72c-9.71-28.9-18-52.49-18.73-52.49S490.89,283,481.18,311.93Z"/></g></g></svg>
