<svg xmlns="http://www.w3.org/2000/svg" viewBox="0 0 39.52 29.66"><defs><style>.cls-1{fill:#fff;}</style></defs><title>02d</title><g id="Layer_2" data-name="Layer 2"><g id="Layer_1-2" data-name="Layer 1"><path class="cls-1" d="M16.75,28.7h16.9a4.91,4.91,0,1,0,0-9.82,5,5,0,0,0-1.19.15.48.48,0,0,1-.38-.07.43.43,0,0,1-.2-.33,7.14,7.14,0,0,0-14.2,1.12c0,.19,0,.38,0,.57a.5.5,0,0,1-.14.39.48.48,0,0,1-.39.13l-.43,0a3.94,3.94,0,0,0,0,7.88m0-8.85v-.1a8.11,8.11,0,0,1,16-1.76,5.59,5.59,0,0,1,.91-.08,5.88,5.88,0,0,1,0,11.75H16.75a4.91,4.91,0,0,1,0-9.81"/><path class="cls-1" d="M7.15,15A7.79,7.79,0,0,1,14.94,7.2a7.34,7.34,0,0,1,6.35,3.32.48.48,0,0,1-.81.53,6.38,6.38,0,0,0-5.54-2.89,6.82,6.82,0,0,0-3.7,12.56.5.5,0,0,1,.15.67.47.47,0,0,1-.41.22.48.48,0,0,1-.26-.07A7.8,7.8,0,0,1,7.15,15"/><path class="cls-1" d="M14.84,4.81a.48.48,0,0,1-.49-.48V.48a.49.49,0,0,1,1,0V4.33a.48.48,0,0,1-.48.48"/><path class="cls-1" d="M9.56,6.32a.55.55,0,0,1-.25.07.48.48,0,0,1-.41-.23l-2-3.27A.5.5,0,0,1,7,2.22a.48.48,0,0,1,.66.16l2,3.27a.49.49,0,0,1-.16.67"/><path class="cls-1" d="M5.58,10.37a.46.46,0,0,1-.23-.06L2,8.49a.49.49,0,0,1-.2-.65.5.5,0,0,1,.66-.2L5.8,9.46a.47.47,0,0,1,.2.65.46.46,0,0,1-.42.26"/><path class="cls-1" d="M.48,14.32H4.34a.49.49,0,1,1,0,1H.48a.49.49,0,0,1,0-1"/><path class="cls-1" d="M2,21.29l3.38-1.84a.48.48,0,1,1,.46.84L2.46,22.14A.48.48,0,0,1,1.81,22,.49.49,0,0,1,2,21.29"/><path class="cls-1" d="M27.67,8.36l-3.38,1.85a.53.53,0,0,1-.24.06.49.49,0,0,1-.23-.91l3.39-1.84a.47.47,0,0,1,.65.19.48.48,0,0,1-.19.65"/><path class="cls-1" d="M8.86,23.48a.48.48,0,0,1,.66-.15.47.47,0,0,1,.15.66l-2,3.27a.48.48,0,0,1-.41.23A.42.42,0,0,1,7,27.41a.48.48,0,0,1-.15-.66Z"/><path class="cls-1" d="M20.81,6.17a.47.47,0,0,1-.4.23A.48.48,0,0,1,20,5.66l2-3.27a.49.49,0,0,1,.82.52Z"/></g></g></svg>
