<svg xmlns="http://www.w3.org/2000/svg" viewBox="0 0 39.29 27.11"><defs><style>.cls-1{fill:#fff;}</style></defs><title>02n</title><g id="Layer_2" data-name="Layer 2"><g id="Layer_1-2" data-name="Layer 1"><path class="cls-1" d="M14.19,26.05H32.45a2.3,2.3,0,0,1,.37,0v0A5.41,5.41,0,1,0,31.51,15.4a.52.52,0,0,1-.42-.08.49.49,0,0,1-.23-.35A7.87,7.87,0,0,0,15.22,16.2q0,.32,0,.63a.52.52,0,0,1-.16.42.55.55,0,0,1-.42.15,3.87,3.87,0,0,0-.48,0,4.34,4.34,0,0,0,0,8.68m0-9.74V16.2A8.93,8.93,0,0,1,31.8,14.25a7.12,7.12,0,0,1,1-.08,6.47,6.47,0,1,1,0,12.94H14.19a5.4,5.4,0,0,1,0-10.8"/><path class="cls-1" d="M7,21A10.93,10.93,0,0,1,1,15.25,10.81,10.81,0,0,1,6.51.93,11,11,0,0,1,21,6.46c.36.79-.71,1-1,.43a10,10,0,0,0-13.09-5,9.7,9.7,0,0,0-5,12.91A9.85,9.85,0,0,0,7.41,20,.52.52,0,1,1,7,21Z"/></g></g></svg>
