<svg xmlns="http://www.w3.org/2000/svg" viewBox="0 0 37.87 33.59"><defs><style>.cls-1{fill:#fff;}</style></defs><title>09d</title><g id="Layer_2" data-name="Layer 2"><g id="Layer_1-2" data-name="Layer 1">
  <path class="cls-1" d="M12.91,22.25H31.43a5.38,5.38,0,1,0,0-10.76,5.76,5.76,0,0,0-1.29.16.54.54,0,0,1-.43-.07.51.51,0,0,1-.22-.36,7.83,7.83,0,0,0-15.56,1.23c0,.21,0,.42,0,.62a.52.52,0,0,1-.15.43.56.56,0,0,1-.43.15,3.59,3.59,0,0,0-.47,0,4.32,4.32,0,1,0,0,8.63m0-9.69s0-.07,0-.11a8.89,8.89,0,0,1,17.56-1.93,5.72,5.72,0,0,1,1-.09,6.44,6.44,0,0,1,0,12.88H12.91a5.38,5.38,0,0,1,0-10.75"/>
  <path fill="#fff"
        d="M6.44,6.88a5.7,5.7,0,0,1,1,.08A8.87,8.87,0,0,1,21.2,1.61a.52.52,0,0,1,.13.73.53.53,0,0,1-.74.13A7.83,7.83,0,0,0,8.38,7.66.49.49,0,0,1,8.15,8a.48.48,0,0,1-.42.07,5.76,5.76,0,0,0-1.29-.16,5.38,5.38,0,0,0-.56,10.73.53.53,0,0,1-.06,1.05H5.77A6.43,6.43,0,0,1,6.44,6.88"/><path class="cls-1" d="M15.5,25.71a.51.51,0,0,0-.69.22l-3.46,6.92a.52.52,0,0,0,.24.69.59.59,0,0,0,.23.05.5.5,0,0,0,.45-.28l3.46-6.91a.52.52,0,0,0-.23-.69"/><path class="cls-1" d="M21.27,25.71a.51.51,0,0,0-.69.22l-3.46,6.92a.53.53,0,0,0,.23.69.64.64,0,0,0,.23.05.51.51,0,0,0,.46-.28L21.5,26.4a.52.52,0,0,0-.23-.69"/><path class="cls-1" d="M27.11,25.7a.49.49,0,0,0-.66.22l-3.32,6.64a.48.48,0,0,0,.22.66.42.42,0,0,0,.22.05A.49.49,0,0,0,24,33l3.32-6.64a.5.5,0,0,0-.22-.66"/></g></g></svg>
