<svg xmlns="http://www.w3.org/2000/svg" viewBox="0 0 35.55 33.54"><defs><style>.cls-1{stroke:#fff;fill:none}</style></defs><title>10d</title><g id="Layer_2" data-name="Layer 2"><g id="Layer_1-2" data-name="Layer 1"><path class="cls-1" d="M17.86,29.54a.44.44,0,0,0-.59.2L15.68,32.9a.44.44,0,0,0,.2.59.46.46,0,0,0,.2,0,.44.44,0,0,0,.39-.24l1.59-3.16a.45.45,0,0,0-.2-.6"/><path class="cls-1" d="M23.52,29.54a.45.45,0,0,0-.6.2L21.34,32.9a.44.44,0,0,0,.2.59.46.46,0,0,0,.2,0,.44.44,0,0,0,.39-.24l1.59-3.16a.45.45,0,0,0-.2-.6"/><path class="cls-1" d="M29.18,29.54a.43.43,0,0,0-.59.2L27,32.9a.44.44,0,0,0,.19.59.53.53,0,0,0,.2,0,.45.45,0,0,0,.4-.24l1.59-3.16a.45.45,0,0,0-.2-.6"/><path class="cls-1" d="M15.44,26.46H31a4.53,4.53,0,0,0,0-9,4.65,4.65,0,0,0-1.1.13.43.43,0,0,1-.35-.06.46.46,0,0,1-.19-.3,6.59,6.59,0,0,0-13.09,1c0,.18,0,.35,0,.53a.45.45,0,0,1-.13.35.47.47,0,0,1-.36.13,2.69,2.69,0,0,0-.4,0,3.64,3.64,0,0,0,0,7.27"/><path class="cls-1" d="M6.59,13.82a7.19,7.19,0,0,1,7.18-7.18A6.75,6.75,0,0,1,19.62,9.7a.44.44,0,0,1-.12.61.45.45,0,0,1-.62-.12,5.86,5.86,0,0,0-5.11-2.66,6.29,6.29,0,0,0-3.41,11.58.44.44,0,0,1-.23.82.48.48,0,0,1-.24-.07,7.16,7.16,0,0,1-3.3-6"/><path class="cls-1" d="M13.68,4.44A.45.45,0,0,1,13.23,4V.45a.45.45,0,1,1,.89,0V4a.44.44,0,0,1-.44.44"/><path class="cls-1" d="M8.82,5.82a.43.43,0,0,1-.23.07.45.45,0,0,1-.39-.21l-1.86-3a.44.44,0,1,1,.75-.47L9,5.21a.45.45,0,0,1-.14.61"/><path class="cls-1" d="M5.14,9.56a.54.54,0,0,1-.21-.05L1.8,7.83a.44.44,0,0,1-.18-.6.44.44,0,0,1,.6-.18L5.35,8.73a.44.44,0,0,1-.21.83"/><path class="cls-1" d="M.44,13.21H4a.45.45,0,0,1,.44.45.45.45,0,0,1-.44.45l-3.56,0a.44.44,0,0,1,0-.88"/><path class="cls-1" d="M1.84,19.63,5,17.93a.45.45,0,0,1,.61.18.46.46,0,0,1-.18.6l-3.12,1.7a.41.41,0,0,1-.21.05.46.46,0,0,1-.4-.23.46.46,0,0,1,.18-.6"/><path class="cls-1" d="M25.51,7.71l-3.12,1.7a.42.42,0,0,1-.21.06A.45.45,0,0,1,22,8.63l3.12-1.7a.45.45,0,1,1,.43.78"/><path class="cls-1" d="M8.16,21.65a.45.45,0,0,1,.62-.14.46.46,0,0,1,.14.62L7,25.14a.44.44,0,0,1-.37.2.53.53,0,0,1-.24-.06.44.44,0,0,1-.14-.61Z"/><path class="cls-1" d="M19.19,5.69a.43.43,0,0,1-.38.21.44.44,0,0,1-.38-.68l1.89-3a.44.44,0,1,1,.75.47Z"/></g></g></svg>
