<svg xmlns="http://www.w3.org/2000/svg" viewBox="0 0 28.96 26.9"><defs><style>.cls-1{fill:none;stroke:white}</style></defs><title>10n</title><g id="Layer_2" data-name="Layer 2"><g id="Layer_1-2" data-name="Layer 1"><path class="cls-1" d="M11.27,22.9a.44.44,0,0,0-.59.2L9.09,26.26a.43.43,0,0,0,.4.64.43.43,0,0,0,.39-.24l1.59-3.16a.45.45,0,0,0-.2-.6"/><path class="cls-1" d="M16.93,22.9a.44.44,0,0,0-.59.2l-1.59,3.16a.43.43,0,0,0,.4.64.43.43,0,0,0,.39-.24l1.59-3.16a.45.45,0,0,0-.2-.6"/><path class="cls-1" d="M22.59,22.9a.44.44,0,0,0-.59.2l-1.59,3.16a.43.43,0,0,0,.4.64.42.42,0,0,0,.39-.24l1.59-3.16a.45.45,0,0,0-.2-.6"/><path class="cls-1" d="M8.85,19.82H24.44a4.53,4.53,0,0,0,0-9,4.74,4.74,0,0,0-1.1.14.44.44,0,0,1-.35-.07.42.42,0,0,1-.19-.3,6.59,6.59,0,0,0-13.09,1c0,.18,0,.36,0,.53a.49.49,0,0,1-.13.36.47.47,0,0,1-.36.12c-.13,0-.26,0-.4,0a3.64,3.64,0,0,0,0,7.27"/><path class="cls-1" d="M0,7.18A7.19,7.19,0,0,1,7.18,0,6.75,6.75,0,0,1,13,3.06a.45.45,0,0,1-.12.62.46.46,0,0,1-.62-.13A5.87,5.87,0,0,0,7.18.89,6.29,6.29,0,0,0,3.77,12.47a.45.45,0,0,1,.14.62.44.44,0,0,1-.37.2.4.4,0,0,1-.24-.07,7.15,7.15,0,0,1-3.3-6"/></g></g></svg>
