<svg xmlns="http://www.w3.org/2000/svg" viewBox="0 0 354.63 372.92"><defs><style>.cls-1{opacity:0.85;}.cls-2{font-size:53px;font-family:QuiteMagical-Regular, Quite Magical;letter-spacing:-0.05em;}.cls-2,.cls-8{fill:#fff;}.cls-3{letter-spacing:0em;}.cls-4{letter-spacing:-0.01em;}.cls-5{letter-spacing:-0.05em;}.cls-6{letter-spacing:0em;}.cls-7{letter-spacing:2.47em;}</style></defs><title>icon2</title><g id="Layer_2" data-name="Layer 2"><g id="Layer_1-2" data-name="Layer 1"><g class="cls-1"><text class="cls-2" transform="matrix(0.92, 0, 0, 1, 48.08, 316.34)">W<tspan class="cls-3" x="33.55" y="0">e</tspan><tspan class="cls-4" x="49.98" y="0">a</tspan><tspan class="cls-3" x="67.47" y="0">ther &amp; </tspan><tspan class="cls-5" x="195.2" y="0">P</tspan><tspan class="cls-6" x="218.04" y="0">rayer </tspan><tspan class="cls-7"><tspan x="0" y="41">	</tspan><tspan class="cls-3" x="152.17" y="41">Dz</tspan></tspan></text><g id="Layer_2-2" data-name="Layer 2"><g id="Layer_1-2-2" data-name="Layer 1-2"><g id="Layer_2-2-2" data-name="Layer 2-2"><g id="Layer_1-2-2-2" data-name="Layer 1-2-2"><path class="cls-8" d="M151,266.83H303.35c26.39,0,48-22,46.43-48.31a45.61,45.61,0,0,0-45.53-42.89h0A42.18,42.18,0,0,0,293.53,177a4.47,4.47,0,0,1-3.43-.67,4,4,0,0,1-1.84-3.07,64.92,64.92,0,0,0-72.89-55.81l-.66.1a65.83,65.83,0,0,0-55.17,66.13V189a4.58,4.58,0,0,1-1.29,3.62,4.15,4.15,0,0,1-3.49,1.22h-3.92a36.78,36.78,0,0,0,0,73.19m-.3-82.69v-.74A73.39,73.39,0,0,1,295.66,167.2a45.39,45.39,0,0,1,8.23-.74,54.84,54.84,0,0,1,0,109.37H150.73a45.75,45.75,0,0,1,0-91.32"/><path class="cls-8" d="M64,139.49a71.61,71.61,0,0,1,70.54-72.66h0a66.2,66.2,0,0,1,57.6,30.71,4.53,4.53,0,0,1-1.29,6.14,4.36,4.36,0,0,1-6.05-1.16l-.09-.13a57.47,57.47,0,0,0-50.23-26.9,62.66,62.66,0,0,0-61.85,63.43,1.34,1.34,0,0,0,0,.2,63.85,63.85,0,0,0,28.43,53.61,4.74,4.74,0,0,1,1.35,6.14A4.31,4.31,0,0,1,98.68,201a4.71,4.71,0,0,1-2.33-.68A73.06,73.06,0,0,1,64,139.42"/><path class="cls-8" d="M134,44.83a4.39,4.39,0,0,1-4.44-4.35h0V4.55a4.5,4.5,0,1,1,9,0h0v35.8a4.39,4.39,0,0,1-4.31,4.48h0"/><path class="cls-8" d="M85.85,58.55a5,5,0,0,1-2.27.68,4.49,4.49,0,0,1-3.75-2.15L61.71,26.37a4.67,4.67,0,0,1,.93-6.14,4.23,4.23,0,0,1,5.89,1.08,3.89,3.89,0,0,1,.25.4h0L87.2,52.41a4.66,4.66,0,0,1-1.47,6.14"/><path class="cls-8" d="M49.74,96.26a4.16,4.16,0,0,1-2.09-.55L17.25,78.76a4.61,4.61,0,0,1-1.78-6.14,4.41,4.41,0,0,1,5.94-2l.2.1,30.28,17A4.43,4.43,0,0,1,54,93.62l-.13.25h0a4.17,4.17,0,0,1-3.8,2.39"/><path class="cls-8" d="M4,132.83H38a4.53,4.53,0,0,1,0,9H4a4.53,4.53,0,0,1,0-9"/><path class="cls-8" d="M17.25,197.9,48,180.76a4.31,4.31,0,0,1,6,1.1l.16.25a4.56,4.56,0,0,1-1.29,6.15l-.55.3-30.71,17.2a4.3,4.3,0,0,1-6-1.06l-.15-.23a4.66,4.66,0,0,1,1.23-6.14l.49-.31"/><path class="cls-8" d="M250.07,77.53l-30.65,17.2a4.49,4.49,0,0,1-2.15.55,4.61,4.61,0,0,1-2.09-8.48l30.71-17.13a4.17,4.17,0,0,1,5.73,1.42,1.62,1.62,0,0,1,.1.18h0a4.47,4.47,0,0,1-1.67,6.11l-.05,0"/><path class="cls-8" d="M79.46,218.29a4.37,4.37,0,0,1,6-1.52l.16.1A4.43,4.43,0,0,1,87.05,223l0,.06h0l-18.43,30.7a4.34,4.34,0,0,1-3.74,2.15,3.92,3.92,0,0,1-2.34-.74A4.54,4.54,0,0,1,61.16,249Z"/><path class="cls-8" d="M187.86,57.14a4.14,4.14,0,0,1-3.63,2.15,4.42,4.42,0,0,1-3.68-6.88L199,21.71a4.42,4.42,0,0,1,6.14-.56,4.62,4.62,0,0,1,1.17,5.41Z"/></g></g></g></g></g><text class="cls-1"></text></g></g></svg>