<svg xmlns="http://www.w3.org/2000/svg"
     viewBox="0 0 104.32 104.42"><title>Asset 1</title><g id="Layer_2" data-name="Layer 2"><g id="Layer_1-2" data-name="Layer 1" stroke="white" fill="white">
  <path d="M78.45,25.87h0a1,1,0,0,1,0-1.39L84,18.9a1,1,0,0,1,1.39,1.39l-5.58,5.58a1,1,0,0,1-1.39,0"/><path d="M103.22,53.49h-13a1,1,0,0,1,0-2h13.07a1,1,0,0,1,0,2"/><path d="M52.22,104.42h0a1,1,0,0,1-1-1V90.36a1,1,0,1,1,2,0v13.06a1,1,0,0,1-1,1"/><path d="M0,53H0a1,1,0,0,1,1-1l12.89-.28a1,1,0,0,1,.07,2L1,53.94a1,1,0,0,1-1-1"/><path d="M52.22,15.06h0a1,1,0,0,1-1-1V1a1,1,0,0,1,2,0V14.06a1,1,0,0,1-1,1"/><path d="M84,85.53l-5.58-5.59a1,1,0,0,1,1.39-1.39l5.58,5.58A1,1,0,0,1,84,85.53"/><path d="M18.8,85.53h0a1,1,0,0,1,0-1.4l5.58-5.58a1,1,0,0,1,1.39,1.39l-5.58,5.59a1,1,0,0,1-1.39,0"/><path d="M24.38,25.87l-5.59-5.58a1,1,0,0,1,1.4-1.39l5.58,5.58a1,1,0,0,1-1.39,1.39"/><path d="M71.46,32.87a27.39,27.39,0,0,0-37.31-1.28l1.21,1.21a25.72,25.72,0,1,1-2.71,2.73l-1.22-1.21a27.35,27.35,0,1,0,40-1.45"/></g></g></svg>
