<svg xmlns="http://www.w3.org/2000/svg" viewBox="0 0 34.57 34.55" ><defs><style>.cls-1{fill:#fff;}</style></defs><title>sunny</title><g id="Layer_2" data-name="Layer 2"><g id="Layer_1-2" data-name="Layer 1"><path class="cls-1" d="M17.29,25.29a8,8,0,1,1,8-7.95,8,8,0,0,1-7.95,8m0-17a9.07,9.07,0,1,0,9.07,9.07,9.08,9.08,0,0,0-9.07-9.07"/><path class="cls-1" d="M17.29,5.61a.56.56,0,0,0,.56-.56V.56a.56.56,0,0,0-1.12,0V5.05a.56.56,0,0,0,.56.56"/><path class="cls-1" d="M17.29,28.94a.56.56,0,0,0-.56.56V34a.56.56,0,0,0,1.12,0V29.5a.56.56,0,0,0-.56-.56"/><path class="cls-1" d="M23.43,7.35a.55.55,0,0,0,.29.09.54.54,0,0,0,.48-.27l2.36-3.81a.55.55,0,0,0-.18-.77.55.55,0,0,0-.77.18L23.25,6.59a.54.54,0,0,0,.18.76"/><path class="cls-1" d="M11.15,27.19a.57.57,0,0,0-.78.19L8,31.19A.56.56,0,0,0,8.2,32a.52.52,0,0,0,.29.09A.57.57,0,0,0,9,31.78L11.33,28a.56.56,0,0,0-.18-.77"/><path class="cls-1" d="M28.07,12.08a.54.54,0,0,0,.27-.07l3.95-2.12a.56.56,0,1,0-.53-1l-4,2.11a.56.56,0,0,0,.26,1.06"/><path class="cls-1" d="M6.23,22.57l-4,2.12a.57.57,0,0,0-.23.76.58.58,0,0,0,.5.3.48.48,0,0,0,.26-.07l4-2.12A.55.55,0,0,0,7,22.8a.56.56,0,0,0-.76-.23"/><path class="cls-1" d="M34,16.68H29.52a.57.57,0,0,0-.56.57.56.56,0,0,0,.56.56h0l4.49,0a.56.56,0,0,0,0-1.12"/><path class="cls-1" d="M5.61,17.32a.56.56,0,0,0-.56-.56l-4.49,0a.56.56,0,1,0,0,1.12H5.05a.56.56,0,0,0,.56-.57"/><path class="cls-1" d="M32.24,24.8,28.3,22.65a.56.56,0,0,0-.76.22.57.57,0,0,0,.22.77l3.94,2.14a.46.46,0,0,0,.27.07.55.55,0,0,0,.49-.28.57.57,0,0,0-.22-.77"/><path class="cls-1" d="M6.82,10.91,2.88,8.75a.56.56,0,0,0-.54,1l3.94,2.15a.52.52,0,0,0,.27.07.56.56,0,0,0,.27-1.05"/><path class="cls-1" d="M24.25,27.35a.56.56,0,0,0-.77-.18.58.58,0,0,0-.18.78l2.38,3.8a.57.57,0,0,0,.48.27.52.52,0,0,0,.29-.09.55.55,0,0,0,.18-.77Z"/><path class="cls-1" d="M10.33,7.19a.55.55,0,0,0,.47.27.69.69,0,0,0,.3-.09.56.56,0,0,0,.18-.77L8.9,2.79a.57.57,0,0,0-.78-.18A.55.55,0,0,0,8,3.38Z"/></g></g></svg>
