<svg xmlns="http://www.w3.org/2000/svg" viewBox="0 0 83.73 56.47" fill="white"><title>03d</title><g id="Layer_2" data-name="Layer 2"><g id="Layer_1-2" data-name="Layer 1"><path d="M29.34,19.9c0-5.57,2.73-11.71,7.3-14.95.42-.3.88-.59,1.35-.86A17.2,17.2,0,0,1,63.77,17.66l.11.85.84,0c9.34,0,17.24,8.2,17.24,17.9s-7.9,17.9-17.25,17.9a14.59,14.59,0,0,1-10.07-3.61l-.25-.13h-.9l-.33.17a17.09,17.09,0,0,1-10.9,4c-4.14,0-7-1.34-10.52-4.87l-.62-.62-.62.59A16.28,16.28,0,0,1,19,54.29,17.12,17.12,0,0,1,3.59,29.53c.21-.43.44-.86.69-1.27A16.86,16.86,0,0,1,18.87,19.9a13.82,13.82,0,0,1,4.19.57V18.63a15.41,15.41,0,0,0-4.19-.5A18.75,18.75,0,0,0,2.68,27.34c-.27.46-.49.93-.72,1.4a18.7,18.7,0,0,0-2,8.4A19,19,0,0,0,19,56.06a18,18,0,0,0,12-4.36c3.61,3.42,6.8,4.77,11.18,4.77A18.42,18.42,0,0,0,53.9,52.28a16.68,16.68,0,0,0,10.81,3.77c10.31,0,19-9,19-19.67,0-10.41-8.29-19.24-18.27-19.66A19,19,0,0,0,37.1,2.55c-.51.3-1,.62-1.49,1-5,3.57-8,10.26-8,16.4v0"/></g></g></svg>
