<svg xmlns="http://www.w3.org/2000/svg" viewBox="0 0 37.81 23.27"><defs><style>.cls-1{fill:#fff;}.cls-2{fill:white;}</style></defs><title>04d</title><g id="Layer_2" data-name="Layer 2"><g id="Layer_1-2" data-name="Layer 1"><path class="cls-1" d="M12.89,22.21H31a2.11,2.11,0,0,1,.36,0v0a5.37,5.37,0,1,0-1.29-10.57.56.56,0,0,1-.42-.07.53.53,0,0,1-.23-.36,7.81,7.81,0,0,0-15.53,1.22c0,.21,0,.42,0,.62a.56.56,0,0,1-.16.43.53.53,0,0,1-.43.14,3.71,3.71,0,0,0-.47,0,4.31,4.31,0,1,0,0,8.62m0-9.67v-.11A8.86,8.86,0,0,1,30.38,10.5a5.77,5.77,0,0,1,1-.08,6.43,6.43,0,1,1,0,12.85H12.89a5.37,5.37,0,0,1,0-10.73"/><path class="cls-2" d="M6.43,6.86a6.85,6.85,0,0,1,1,.08A8.87,8.87,0,0,1,21.17,1.6a.53.53,0,1,1-.61.86A7.81,7.81,0,0,0,8.37,7.65.49.49,0,0,1,8.14,8a.51.51,0,0,1-.42.07,5.3,5.3,0,0,0-1.29-.16,5.37,5.37,0,0,0-.56,10.71.53.53,0,0,1,0,1.05H5.76A6.43,6.43,0,0,1,6.43,6.86"/></g></g></svg>
