<svg xmlns="http://www.w3.org/2000/svg" viewBox="0 0 83.73 78.48"><defs><style>.cls-1{fill:none;stroke:#fff;stroke-miterlimit:10;stroke-width:2px;}</style></defs><title>11d</title><g id="Layer_2" data-name="Layer 2"><g id="Layer_1-2" data-name="Layer 1"><path class="cls-1" d="M45.85,39,32.93,59.67a.27.27,0,0,0,.24.43l9.58-.42a.28.28,0,0,1,.27.39l-6.09,17a.28.28,0,0,0,.48.27l14-22.19a.28.28,0,0,0-.23-.44H42.12a.27.27,0,0,1-.27-.35l4.5-15.11a.28.28,0,0,0-.5-.23"/><path fill="white" d="M65.46,16.72A19,19,0,0,0,37.1,2.55c-.51.3-1,.62-1.49,1-5,3.57-8,10.26-8,16.4v0l1.78,0c0-5.57,2.72-11.71,7.29-14.95.43-.3.88-.59,1.35-.86A17.2,17.2,0,0,1,63.77,17.66l.11.85.84,0c9.35,0,17.24,8.2,17.24,17.9s-7.9,17.9-17.24,17.9a15,15,0,0,1-9.39-3l-.27.21-1,.87a16.74,16.74,0,0,0,10.65,3.65c10.31,0,19-9,19-19.68,0-10.41-8.29-19.24-18.27-19.66"/><path fill="white" d="M30.5,49.84A16.27,16.27,0,0,1,19,54.29,17.14,17.14,0,0,1,3.59,29.53c.21-.43.44-.86.69-1.27A16.87,16.87,0,0,1,18.87,19.9a13.82,13.82,0,0,1,4.19.57V18.63a15.41,15.41,0,0,0-4.19-.5A18.75,18.75,0,0,0,2.68,27.34c-.27.46-.49.93-.72,1.4A18.93,18.93,0,0,0,19,56.06a18,18,0,0,0,12-4.35Z"/></g></g></svg>
