<svg xmlns="http://www.w3.org/2000/svg" viewBox="0 0 36.77 35.52"><defs><style>.cls-1{fill:#fff;}</style></defs><title>13d</title><g id="Layer_2" data-name="Layer 2"><g id="Layer_1-2" data-name="Layer 1"><path class="cls-1" d="M10.35,23.32a.54.54,0,0,0,.05-.22m7.35.22a.56.56,0,0,0,.06-.21"/><path class="cls-1" d="M12.53,21.61h18a5.23,5.23,0,0,0,0-10.45,5,5,0,0,0-1.26.16.58.58,0,0,1-.41-.07.53.53,0,0,1-.22-.35,7.6,7.6,0,0,0-15.11,1.18c0,.21,0,.41,0,.62a.49.49,0,0,1-.15.41.54.54,0,0,1-.41.14,3.55,3.55,0,0,0-.46,0,4.2,4.2,0,0,0,0,8.39m0-9.41v-.12a8.62,8.62,0,0,1,17-1.87,6.58,6.58,0,0,1,1-.08,6.25,6.25,0,1,1,0,12.5h-18a5.22,5.22,0,0,1,0-10.43"/><path class="cls-1" d="M6.25,6.68a6.42,6.42,0,0,1,1,.07A8.62,8.62,0,0,1,20.58,1.56a.51.51,0,0,1,.13.71A.52.52,0,0,1,20,2.4a7.59,7.59,0,0,0-11.85,5,.52.52,0,0,1-.23.35.47.47,0,0,1-.4.07A5.06,5.06,0,0,0,6.25,7.7,5.22,5.22,0,0,0,5.7,18.12a.51.51,0,0,1,0,1H5.6A6.25,6.25,0,0,1,6.25,6.68"/><path class="cls-1" d="M11,27.52a1.71,1.71,0,1,1-1.71-1.7A1.72,1.72,0,0,1,11,27.52"/><path class="cls-1" d="M7.34,33.81a1.71,1.71,0,1,1-1.71-1.7,1.71,1.71,0,0,1,1.71,1.7"/><path class="cls-1" d="M20.5,27.52a1.71,1.71,0,1,1-3.42,0,1.71,1.71,0,0,1,3.42,0"/><path class="cls-1" d="M16.86,33.81a1.71,1.71,0,1,1-1.71-1.7,1.72,1.72,0,0,1,1.71,1.7"/><path class="cls-1" d="M29.94,27.52a1.71,1.71,0,1,1-1.71-1.7,1.72,1.72,0,0,1,1.71,1.7"/><path class="cls-1" d="M26.3,33.81a1.71,1.71,0,1,1-1.71-1.7,1.71,1.71,0,0,1,1.71,1.7"/></g></g></svg>
