<svg xmlns="http://www.w3.org/2000/svg" viewBox="0 0 66.25 33.32" fill="white"><title>50d</title><g id="Layer_2" data-name="Layer 2"><g id="Layer_1-2" data-name="Layer 1"><path d="M52,17.26H.86a.86.86,0,1,1,0-1.71H52a.85.85,0,0,1,.85.85.86.86,0,0,1-.85.86"/><path d="M58,25.29H10.86a.86.86,0,1,1,0-1.71H58a.85.85,0,0,1,.85.85.86.86,0,0,1-.85.86"/><path d="M37.52,33.32H22.4a.86.86,0,1,1,0-1.71H37.52a.86.86,0,1,1,0,1.71"/><path d="M12.82,1.71H56.94a.85.85,0,0,0,.85-.85A.85.85,0,0,0,56.94,0H12.82Z"/><path d="M1,1.71H9.13V0H1A.86.86,0,1,0,1,1.71"/><path d="M10.27,9.74H65.39a.86.86,0,1,0,0-1.71H10.27a.86.86,0,0,0-.85.86.85.85,0,0,0,.85.85"/></g></g></svg>
