<svg xmlns="http://www.w3.org/2000/svg" viewBox="0 0 354.63 359.2"><defs><style>.cls-1{fill:#fff;}</style></defs><title>icon3</title><g id="Layer_2" data-name="Layer 2"><g id="Layer_1-2" data-name="Layer 1"><path class="cls-1" d="M67.52,298.42c.16.71.3,1.53.43,2.47s.25,1.92.38,2.94.31,2.25.45,3.37.31,2.13.51,3a12.65,12.65,0,0,0,.6,2.05,7.45,7.45,0,0,0,.41.82,8.84,8.84,0,0,0,1.59-2.83q.81-2,1.6-4.77c.52-1.81,1-3.75,1.5-5.8s.9-4,1.28-5.93.72-3.64,1-5.19.51-2.76.65-3.6a1.59,1.59,0,0,1,.49-1,1.26,1.26,0,0,1,.92-.36,1.2,1.2,0,0,1,1.12.56,2.39,2.39,0,0,1,.34,1.29c-.33,2-.69,4-1.09,6.2s-.84,4.39-1.33,6.6-1,4.38-1.65,6.51-1.25,4.12-1.94,6c-.2.49-.42,1.06-.69,1.69a11.34,11.34,0,0,1-.95,1.83,6.86,6.86,0,0,1-1.27,1.48,2.35,2.35,0,0,1-1.59.61,4.12,4.12,0,0,1-2.38-.75A7.86,7.86,0,0,1,66,313.79a12.92,12.92,0,0,1-1.38-2.44c-.39-.89-.71-1.72-1-2.5-.17.67-.38,1.45-.64,2.33a12.11,12.11,0,0,1-1,2.47,7.7,7.7,0,0,1-1.51,1.93,3,3,0,0,1-2.1.78,4,4,0,0,1-3-1.67,16.24,16.24,0,0,1-2.43-4.3,44.68,44.68,0,0,1-1.81-5.86c-.51-2.16-.94-4.25-1.27-6.29s-.58-3.9-.74-5.62-.24-3-.23-3.89c0-.46,0-1,0-1.59a6.88,6.88,0,0,1,.3-1.72A3.5,3.5,0,0,1,50,284a1.71,1.71,0,0,1,1.36-.55,2.11,2.11,0,0,1,.69.16,1.75,1.75,0,0,1,.82.74,5.65,5.65,0,0,1,.83,2c.19.82.35,1.52.48,2.13.22,1.13.44,2.43.64,3.92s.43,3.06.65,4.72c.25,1.87.51,3.72.76,5.54s.55,3.53.87,5.12a28,28,0,0,0,.94,3.89,9.71,9.71,0,0,0,.6,1.46,4.19,4.19,0,0,0,1.47-2.33,30.8,30.8,0,0,0,1.08-4.1c.3-1.5.54-2.95.72-4.34s.29-2.41.32-3.05a.85.85,0,0,1,0-.32,13.51,13.51,0,0,1,.2-1.38,5.53,5.53,0,0,1,.44-1.32,2.86,2.86,0,0,1,.81-1,2,2,0,0,1,1.24-.39,1.65,1.65,0,0,1,1.07.34,2.84,2.84,0,0,1,.73.85,5.42,5.42,0,0,1,.49,1.12A9.34,9.34,0,0,1,67.52,298.42Z"/><path class="cls-1" d="M79.57,307.94a11,11,0,0,1,.55-3.42,8.8,8.8,0,0,1,1.54-2.83,7.53,7.53,0,0,1,2.41-1.93,6.9,6.9,0,0,1,3.17-.7,5.21,5.21,0,0,1,3.36,1.17,4.07,4.07,0,0,1,1.45,3.4,5.52,5.52,0,0,1-.56,2.49A6,6,0,0,1,90,308a7,7,0,0,1-2,1.19,6.49,6.49,0,0,1-2.29.42,1.45,1.45,0,0,1-.44-.11c0,.25.09.59.19,1a6.9,6.9,0,0,0,.39,1.24,4.52,4.52,0,0,0,.58,1,1,1,0,0,0,.83.45,3.3,3.3,0,0,0,2-.68,4.06,4.06,0,0,0,1.37-1.75,1.36,1.36,0,0,1,1.32-.95,1.34,1.34,0,0,1,1,.48,1.68,1.68,0,0,1,.41,1.11,3.61,3.61,0,0,1-.1.64,7,7,0,0,0-.39.74,6.61,6.61,0,0,1-1.08,1.48,7.94,7.94,0,0,1-1.85,1.45,5.2,5.2,0,0,1-2.68.66,7.7,7.7,0,0,1-3.17-.64A7,7,0,0,1,81.67,314a8.33,8.33,0,0,1-1.55-2.7A10.05,10.05,0,0,1,79.57,307.94Zm7.66-5.7a1,1,0,0,0-.85.5,4.57,4.57,0,0,0-.61,1.21,10,10,0,0,0-.39,1.41c-.1.46-.17.83-.2,1.11a1.73,1.73,0,0,1,.48-.05,3.44,3.44,0,0,0,2.59-.92,2.75,2.75,0,0,0,.88-1.83,1.14,1.14,0,0,0-.63-1.14A3.05,3.05,0,0,0,87.23,302.24Z"/><path class="cls-1" d="M99.52,316.47a4.7,4.7,0,0,1-3.7-1.33,4.32,4.32,0,0,1-1.16-2.92,5.08,5.08,0,0,1,.88-3,7.46,7.46,0,0,1,2.2-2.06A9.62,9.62,0,0,1,100.6,306a12,12,0,0,1,2.85-.36.6.6,0,0,1,.24.05c0-.28-.09-.62-.17-1a6,6,0,0,0-.34-1.11,2.92,2.92,0,0,0-.56-.9,1.14,1.14,0,0,0-.87-.38,3.56,3.56,0,0,0-1,.16,4.06,4.06,0,0,0-1.07.47,4.4,4.4,0,0,0-.91.74,1.87,1.87,0,0,0-.48,1,1.43,1.43,0,0,1-.49.9,1.45,1.45,0,0,1-.93.31,1.37,1.37,0,0,1-1-.45,1.58,1.58,0,0,1-.44-1.14,3.24,3.24,0,0,1,.66-1.85,11,11,0,0,1,1.25-1.54,10.17,10.17,0,0,1,1.78-1.16,5.59,5.59,0,0,1,2.66-.58,7.59,7.59,0,0,1,5.91,2.67,8.42,8.42,0,0,1,1.6,2.92,11.7,11.7,0,0,1,.55,3.66,15.08,15.08,0,0,1-.25,2.51,12.05,12.05,0,0,1-.81,2.68,6.78,6.78,0,0,1-1.47,2.14,3,3,0,0,1-2.17.87,1.34,1.34,0,0,1-1-.48,1.61,1.61,0,0,1-.44-1.11,1.12,1.12,0,0,1,0-.24,3,3,0,0,1,.12-.72Q101.82,316.48,99.52,316.47Zm4-7.67a4.37,4.37,0,0,0-1.49.26,4.09,4.09,0,0,0-1.37.79,4.22,4.22,0,0,0-1,1.22,3.26,3.26,0,0,0-.37,1.58c0,.39,0,.59.09.59a2.24,2.24,0,0,0,1.32-.45,5.71,5.71,0,0,0,1.17-1.14,8.69,8.69,0,0,0,.95-1.48C103.1,309.64,103.32,309.19,103.49,308.8Z"/><path class="cls-1" d="M118.45,286.36a22.31,22.31,0,0,1,.14,3c.06,1.2.1,2.58.11,4.14s0,3.18,0,4.87v1.06a2.15,2.15,0,0,0,.83-.15,1.47,1.47,0,0,1,.48-.11,1.32,1.32,0,0,1,1,.48,1.63,1.63,0,0,1,.41,1.12,1.53,1.53,0,0,1-.29.95,1.87,1.87,0,0,1-.71.55,3.76,3.76,0,0,1-.9.27l-.93.13c0,1.83,0,3.67-.09,5.51s-.18,3.67-.38,5.51c0,.32-.08.64-.14,1a4.4,4.4,0,0,1-.3.93,1.74,1.74,0,0,1-.54.68,1.35,1.35,0,0,1-.87.27,2.12,2.12,0,0,1-1.1-.4,3.21,3.21,0,0,1-1-1.62,16.35,16.35,0,0,1-.56-2.6q-.21-1.54-.33-3.18c-.08-1.1-.12-2.16-.14-3.18s0-1.91,0-2.65v-.22l-1,0-.44,0a1.54,1.54,0,0,1-1.35-1.7,1.68,1.68,0,0,1,.48-1.09,1.29,1.29,0,0,1,1.08-.39h.34a4.82,4.82,0,0,0,.92.05c0-1,.07-2,.11-3.15s.1-2.23.2-3.36.24-2.25.4-3.34a27.61,27.61,0,0,1,.64-3.07,5.9,5.9,0,0,1,.3-1,4.79,4.79,0,0,1,.46-.87,2.59,2.59,0,0,1,.66-.66,1.49,1.49,0,0,1,.88-.26,1.2,1.2,0,0,1,1.29.85A7.17,7.17,0,0,1,118.45,286.36Z"/><path class="cls-1" d="M123.74,314.47a13.14,13.14,0,0,1-.61-2.6c-.14-1-.24-2.09-.31-3.18s-.1-2.16-.11-3.18,0-1.91,0-2.65c0-1.2,0-2.51,0-3.92s.08-2.85.18-4.3.24-2.87.42-4.26a35.67,35.67,0,0,1,.72-3.84,7.7,7.7,0,0,1,.76-1.8,1.7,1.7,0,0,1,1.59-.9,1.17,1.17,0,0,1,1.24.83,9.37,9.37,0,0,1,.36,1.67c.15,2,.24,4,.25,6s0,4,0,6c0,.85,0,1.67,0,2.47s0,1.58,0,2.36a7.26,7.26,0,0,1,1.54-1.69,3.13,3.13,0,0,1,2.07-.74,4.63,4.63,0,0,1,2.8.85,6.83,6.83,0,0,1,1.87,2.18,10.34,10.34,0,0,1,1,2.92,15.82,15.82,0,0,1,.3,3.08,16.86,16.86,0,0,1-.15,2,9.76,9.76,0,0,1-.56,2.25,5.82,5.82,0,0,1-1.1,1.79,2.28,2.28,0,0,1-1.76.74,1.62,1.62,0,0,1-1.31-.64,2.64,2.64,0,0,1-.68-1.4,12.18,12.18,0,0,1-.24-2c0-.71,0-1.41,0-2.09s0-1.28,0-1.78c0-.28,0-.69,0-1.22s0-1.05,0-1.56a7.75,7.75,0,0,0-.1-1.35c-.06-.39-.19-.59-.39-.59-.52,0-1,.41-1.41,1.22A17.13,17.13,0,0,0,129,308a26.66,26.66,0,0,0-.84,3.18c-.21,1.06-.37,1.84-.47,2.33a9.88,9.88,0,0,1-.15,1,4.3,4.3,0,0,1-.29,1,2,2,0,0,1-.54.74,1.33,1.33,0,0,1-.88.29,2.07,2.07,0,0,1-1.12-.4A3.2,3.2,0,0,1,123.74,314.47Z"/><path class="cls-1" d="M138.75,308.09a10.92,10.92,0,0,1,.55-3.41,8.69,8.69,0,0,1,1.54-2.83,7.21,7.21,0,0,1,2.42-1.93,6.86,6.86,0,0,1,3.16-.71,5.22,5.22,0,0,1,3.36,1.18,4.06,4.06,0,0,1,1.45,3.39,5.49,5.49,0,0,1-.56,2.49,5.86,5.86,0,0,1-1.49,1.88,7.14,7.14,0,0,1-2.05,1.19,6.26,6.26,0,0,1-2.29.41,1.37,1.37,0,0,1-.44-.1c0,.24.1.59.19,1a7.93,7.93,0,0,0,.39,1.25,4.45,4.45,0,0,0,.58,1,1,1,0,0,0,.83.45,3.23,3.23,0,0,0,2-.68,4.14,4.14,0,0,0,1.36-1.74,1.36,1.36,0,0,1,1.32-1,1.4,1.4,0,0,1,1.05.48,1.68,1.68,0,0,1,.41,1.12,2.8,2.8,0,0,1-.1.63s-.16.29-.39.75a6.85,6.85,0,0,1-1.08,1.48,8,8,0,0,1-1.85,1.45,5.1,5.1,0,0,1-2.68.65,7.54,7.54,0,0,1-3.17-.64,7,7,0,0,1-2.4-1.78,8.2,8.2,0,0,1-1.55-2.71A9.73,9.73,0,0,1,138.75,308.09Zm7.67-5.7a1.07,1.07,0,0,0-.86.5,4.64,4.64,0,0,0-.61,1.22,13.43,13.43,0,0,0-.39,1.4c-.1.46-.17.83-.2,1.11a1.82,1.82,0,0,1,.49-.05,3.35,3.35,0,0,0,2.58-.92,2.66,2.66,0,0,0,.88-1.82,1.12,1.12,0,0,0-.63-1.14A2.91,2.91,0,0,0,146.42,302.39Z"/><path class="cls-1" d="M163,308.63c0-.28,0-.68.05-1.21s.07-1.05.1-1.54.05-.93.05-1.3,0-.56-.09-.56c-.52,0-1,.44-1.42,1.33a20.14,20.14,0,0,0-1.15,3.09c-.34,1.19-.64,2.37-.89,3.55s-.45,2.09-.61,2.73a4.2,4.2,0,0,1-.61,1.32,1.38,1.38,0,0,1-1.2.58,2.11,2.11,0,0,1-1.73-.82,5.6,5.6,0,0,1-1-2,12.82,12.82,0,0,1-.4-2.44c-.07-.85-.1-1.56-.09-2.12s0-1.46.12-2.57a23,23,0,0,1,.5-3.31,9.58,9.58,0,0,1,1.1-2.86,2.22,2.22,0,0,1,1.95-1.22,1.22,1.22,0,0,1,1,.46,3.17,3.17,0,0,1,.5,1.08,5.85,5.85,0,0,1,.2,1.33c0,.46,0,.85.07,1.17a8,8,0,0,1,1.58-1.75,3.26,3.26,0,0,1,2.12-.74,4.93,4.93,0,0,1,3.85,1.66,6.17,6.17,0,0,1,1.45,4.24,8.09,8.09,0,0,1-.2,1.7,6.17,6.17,0,0,1-.61,1.64,4.22,4.22,0,0,1-1.05,1.24,2.36,2.36,0,0,1-1.52.5,1.68,1.68,0,0,1-1.7-1A5.44,5.44,0,0,1,163,308.63Z"/><path class="cls-1" d="M196,287.57A3.38,3.38,0,0,1,199,289a5.93,5.93,0,0,1,.9,3.36,16.55,16.55,0,0,1-.28,2.76c-.18,1-.4,2-.66,3s-.56,2-.89,3-.62,1.84-.88,2.62c.93,1.7,2,3.43,3.15,5.2a34.56,34.56,0,0,0,2.2-3.31,31.84,31.84,0,0,0,2-4.05,1.43,1.43,0,0,1,2.36-.44,1.6,1.6,0,0,1,.41,1.14,5.36,5.36,0,0,1-.64,2,29.79,29.79,0,0,1-1.51,2.78c-.59.95-1.18,1.85-1.76,2.69s-1,1.45-1.32,1.8l1.31,1.78a4.54,4.54,0,0,1,.48.72,1.42,1.42,0,0,1,.34,1,1.64,1.64,0,0,1-.42,1.11,1.38,1.38,0,0,1-2.16-.11s-.21-.25-.51-.64a19.78,19.78,0,0,1-1.14-1.65,14.28,14.28,0,0,1-3.32,2.19,7.52,7.52,0,0,1-3.22.76,3.45,3.45,0,0,1-3.06-1.41,6,6,0,0,1-1-3.53,14.43,14.43,0,0,1,.3-2.78c.2-1,.44-2,.71-3s.59-2,.91-3,.64-1.86.94-2.67a22.82,22.82,0,0,1-1-3.24,12.62,12.62,0,0,1-.33-2.75,8.43,8.43,0,0,1,.35-2.39,7.07,7.07,0,0,1,1-2.11,5.56,5.56,0,0,1,1.61-1.56A3.92,3.92,0,0,1,196,287.57ZM194,295.52c.53-1.55,1-3.06,1.33-4.5a2.42,2.42,0,0,0-1.12,1.37,5.5,5.5,0,0,0-.35,1.86A6.17,6.17,0,0,0,194,295.52Zm4.25,15.64c-.42-.6-.83-1.21-1.21-1.83s-.76-1.24-1.12-1.88c-.26.7-.49,1.37-.69,2l-.54,1.78c-.26,1.06-.42,1.8-.49,2.22A9.93,9.93,0,0,0,198.22,311.16Z"/><path class="cls-1" d="M228.4,301.17q0-1.43,0-3.36c0-1.29.08-2.62.18-4s.23-2.68.4-4a18.73,18.73,0,0,1,.69-3.31,4.89,4.89,0,0,1,.81-1.67,1.76,1.76,0,0,1,1.53-.76,1.23,1.23,0,0,1,1.25.77,6.64,6.64,0,0,1,.41,1.62c0,.24.06.53.09.84s.06.68.09,1.06a13.76,13.76,0,0,1,3.79-3,9.12,9.12,0,0,1,4.55-1.18,9.83,9.83,0,0,1,5.75,1.95,7.66,7.66,0,0,1,2,2.28,6.1,6.1,0,0,1,.77,3.1,12.28,12.28,0,0,1-1.08,5.09,13,13,0,0,1-6.94,6.66,12.28,12.28,0,0,1-4.73.94,8.57,8.57,0,0,1-3.74-.81q0,1.33-.06,2.73c0,.94-.07,1.86-.1,2.76s-.09,1.75-.16,2.54-.15,1.51-.25,2.15a10,10,0,0,1-.17,1.06,4.28,4.28,0,0,1-.37,1.06,2.57,2.57,0,0,1-.61.79,1.4,1.4,0,0,1-1,.32,2.16,2.16,0,0,1-.75-.19,1.89,1.89,0,0,1-.85-.82,7.92,7.92,0,0,1-.9-2.92c-.21-1.35-.36-2.76-.45-4.24s-.16-2.93-.18-4.32S228.39,301.88,228.4,301.17Zm16.68-9.65a7.52,7.52,0,0,0-.5-2.89,2.3,2.3,0,0,0-2.31-1.25,6.37,6.37,0,0,0-2.39.44,8.74,8.74,0,0,0-2.2,1.24,12.78,12.78,0,0,0-1.88,1.8,11.6,11.6,0,0,0-1.44,2.11,1.71,1.71,0,0,1-.24.32c0,1.1,0,2.17.06,3.23s0,2.14.06,3.24A5.57,5.57,0,0,0,238,301a6.22,6.22,0,0,0,3.24-.79,6.43,6.43,0,0,0,2.2-2.14,9.67,9.67,0,0,0,1.25-3.07A15.9,15.9,0,0,0,245.08,291.52Z"/><path class="cls-1" d="M258.28,308.88c0-.28,0-.69.06-1.22s.06-1,.1-1.53.05-.93.05-1.3,0-.56-.1-.56q-.78,0-1.41,1.32a19.65,19.65,0,0,0-1.15,3.1c-.35,1.18-.65,2.37-.89,3.55s-.45,2.09-.62,2.73a4,4,0,0,1-.61,1.32,1.38,1.38,0,0,1-1.19.58,2.09,2.09,0,0,1-1.73-.83,5.32,5.32,0,0,1-1-2,13,13,0,0,1-.41-2.44q-.09-1.28-.09-2.13c0-.6,0-1.45.13-2.56a23.32,23.32,0,0,1,.49-3.32,9.8,9.8,0,0,1,1.11-2.86,2.2,2.2,0,0,1,1.95-1.21,1.21,1.21,0,0,1,1,.45,3.13,3.13,0,0,1,.51,1.09,6.46,6.46,0,0,1,.19,1.33c0,.46,0,.85.07,1.16a8.28,8.28,0,0,1,1.59-1.74,3.26,3.26,0,0,1,2.12-.74,4.94,4.94,0,0,1,3.84,1.65,6.14,6.14,0,0,1,1.45,4.25,8.16,8.16,0,0,1-.2,1.7,6,6,0,0,1-.61,1.64,4.36,4.36,0,0,1-1.05,1.24,2.39,2.39,0,0,1-1.51.5,1.67,1.67,0,0,1-1.7-1A5.44,5.44,0,0,1,258.28,308.88Z"/><path class="cls-1" d="M269.66,316.92a4.71,4.71,0,0,1-3.7-1.34,4.35,4.35,0,0,1-1.16-2.92,5,5,0,0,1,.89-3,7.43,7.43,0,0,1,2.19-2.06,9.62,9.62,0,0,1,2.86-1.19,12.49,12.49,0,0,1,2.85-.36.6.6,0,0,1,.24.05c0-.28-.09-.61-.17-1a6,6,0,0,0-.34-1.12,3.1,3.1,0,0,0-.55-.9,1.13,1.13,0,0,0-.88-.37,3.91,3.91,0,0,0-1,.15,4.45,4.45,0,0,0-1.07.48,4.68,4.68,0,0,0-.91.74,1.93,1.93,0,0,0-.49,1,1.37,1.37,0,0,1-.48.9,1.46,1.46,0,0,1-.93.32,1.42,1.42,0,0,1-1-.46,1.58,1.58,0,0,1-.44-1.14,3.32,3.32,0,0,1,.66-1.85,11,11,0,0,1,1.25-1.53,10.16,10.16,0,0,1,1.78-1.17,5.59,5.59,0,0,1,2.66-.57,7.66,7.66,0,0,1,3.38.72,7.81,7.81,0,0,1,2.53,1.94,8.51,8.51,0,0,1,1.6,2.92,11.7,11.7,0,0,1,.55,3.66,15.29,15.29,0,0,1-.25,2.52,12.13,12.13,0,0,1-.81,2.67,6.62,6.62,0,0,1-1.47,2.14,2.93,2.93,0,0,1-2.17.87,1.34,1.34,0,0,1-1-.48,1.55,1.55,0,0,1-.43-1.11,1.06,1.06,0,0,1,0-.24,1.12,1.12,0,0,0,0-.24,1.19,1.19,0,0,0,.09-.47Q272,316.91,269.66,316.92Zm4-7.68a4.63,4.63,0,0,0-1.49.26,4.2,4.2,0,0,0-2.34,2,3.28,3.28,0,0,0-.37,1.59c0,.39,0,.58.09.58a2.29,2.29,0,0,0,1.32-.44A5.71,5.71,0,0,0,272,312.1a9.88,9.88,0,0,0,1-1.48Q273.38,309.82,273.63,309.24Z"/><path class="cls-1" d="M289.16,328.68a5.41,5.41,0,0,1-1.26-.19,8,8,0,0,1-1.51-.53,4.2,4.2,0,0,1-1.24-.88,1.66,1.66,0,0,1-.51-1.17,1.61,1.61,0,0,1,.44-1.11,1.31,1.31,0,0,1,1-.47,1.57,1.57,0,0,1,.82.26,5.28,5.28,0,0,0,1.19.67,3,3,0,0,0,.81.24q.39,0,.66-.72a11.83,11.83,0,0,0,.49-1.8c.15-.72.28-1.52.39-2.41s.21-1.74.28-2.59.12-1.62.15-2.31.05-1.19.05-1.51a7.71,7.71,0,0,1-1.51,1.93,3.06,3.06,0,0,1-2.15.87,4.24,4.24,0,0,1-2.89-1,7.36,7.36,0,0,1-1.85-2.47,11.93,11.93,0,0,1-1-3.23,20.28,20.28,0,0,1-.28-3.24,20.89,20.89,0,0,1,.13-2.17,10.91,10.91,0,0,1,.51-2.44,6.67,6.67,0,0,1,1.08-2,2.22,2.22,0,0,1,1.81-.84,1.58,1.58,0,0,1,1.5.91,6.26,6.26,0,0,1,.66,2.09,16.41,16.41,0,0,1,.14,2.44c0,.83,0,1.49,0,2s0,1.06,0,1.8,0,1.47,0,2.2,0,1.35.12,1.88.17.8.34.8.58-.21.87-.64a8.5,8.5,0,0,0,.86-1.64,18.43,18.43,0,0,0,.76-2.28c.23-.84.44-1.67.62-2.48s.34-1.58.47-2.28.23-1.27.29-1.7.13-.65.2-1a4.22,4.22,0,0,1,.3-1,2,2,0,0,1,.53-.74,1.28,1.28,0,0,1,.88-.29,1.66,1.66,0,0,1,1.39.77,6.62,6.62,0,0,1,.92,2,19.73,19.73,0,0,1,.58,2.65c.14,1,.24,1.92.3,2.84s.1,1.77.12,2.54,0,1.37,0,1.75c0,.85,0,1.86-.11,3s-.19,2.36-.37,3.58a26,26,0,0,1-.79,3.6,14.81,14.81,0,0,1-1.32,3.18,7.26,7.26,0,0,1-2,2.27A4.68,4.68,0,0,1,289.16,328.68Z"/><path class="cls-1" d="M298.08,308.51a10.74,10.74,0,0,1,.54-3.42,8.82,8.82,0,0,1,1.55-2.83,7.43,7.43,0,0,1,2.41-1.93,6.9,6.9,0,0,1,3.17-.7,5.21,5.21,0,0,1,3.36,1.17,4.1,4.1,0,0,1,1.45,3.4,5.43,5.43,0,0,1-.57,2.49,5.69,5.69,0,0,1-1.49,1.87,7.14,7.14,0,0,1-2.05,1.19,6.45,6.45,0,0,1-2.29.42,1.48,1.48,0,0,1-.43-.11c0,.25.09.59.19,1a6.89,6.89,0,0,0,.38,1.24,5,5,0,0,0,.59,1,1,1,0,0,0,.82.45,3.33,3.33,0,0,0,2-.68,4.06,4.06,0,0,0,1.37-1.75,1.36,1.36,0,0,1,1.32-.95,1.3,1.3,0,0,1,1,.48,1.64,1.64,0,0,1,.42,1.11,3.61,3.61,0,0,1-.1.64,5.23,5.23,0,0,0-.4.74,6.24,6.24,0,0,1-1.07,1.48,8.21,8.21,0,0,1-1.85,1.45,5.23,5.23,0,0,1-2.69.66,7.65,7.65,0,0,1-3.16-.64,7,7,0,0,1-2.41-1.79,8.33,8.33,0,0,1-1.55-2.7A10.05,10.05,0,0,1,298.08,308.51Zm7.66-5.7a1,1,0,0,0-.85.5,4.29,4.29,0,0,0-.61,1.21,11.58,11.58,0,0,0-.4,1.41c-.1.46-.16.83-.2,1.11a1.82,1.82,0,0,1,.49-.05,3.44,3.44,0,0,0,2.59-.92,2.75,2.75,0,0,0,.88-1.83,1.14,1.14,0,0,0-.63-1.14A2.94,2.94,0,0,0,305.74,302.81Z"/><path class="cls-1" d="M322.34,309.05c0-.28,0-.69.05-1.22s.06-1,.1-1.54.05-.92.05-1.29,0-.56-.1-.56q-.78,0-1.41,1.32a19.28,19.28,0,0,0-1.15,3.1c-.35,1.18-.64,2.36-.89,3.55s-.45,2.09-.62,2.72a4,4,0,0,1-.61,1.33,1.37,1.37,0,0,1-1.19.58,2.1,2.1,0,0,1-1.73-.83,5.36,5.36,0,0,1-1-2,13.66,13.66,0,0,1-.41-2.44c-.06-.85-.09-1.55-.09-2.12s0-1.46.13-2.57a23.39,23.39,0,0,1,.49-3.31,9.7,9.7,0,0,1,1.11-2.86,2.2,2.2,0,0,1,1.95-1.21,1.19,1.19,0,0,1,1,.45,3,3,0,0,1,.51,1.09,5.76,5.76,0,0,1,.19,1.32c0,.46,0,.85.07,1.17a8.28,8.28,0,0,1,1.59-1.74,3.21,3.21,0,0,1,2.12-.74,4.91,4.91,0,0,1,3.85,1.65,6.14,6.14,0,0,1,1.44,4.25,8,8,0,0,1-.19,1.69,6.06,6.06,0,0,1-.62,1.64,4.27,4.27,0,0,1-1,1.25,2.37,2.37,0,0,1-1.51.5,1.69,1.69,0,0,1-1.7-1A5.23,5.23,0,0,1,322.34,309.05Z"/><path class="cls-1" d="M188.74,342.81c0-1,0-2.22,0-3.58s.08-2.75.18-4.18.24-2.82.4-4.16a21,21,0,0,1,.69-3.44,6.08,6.08,0,0,1,.79-1.72,1.75,1.75,0,0,1,1.56-.82,1.31,1.31,0,0,1,.85.26,1.84,1.84,0,0,1,.49.69,4.53,4.53,0,0,1,.24.93q.08.51.12.93a12.49,12.49,0,0,1,3.07-2,8,8,0,0,1,3.36-.76,7.08,7.08,0,0,1,4.75,1.65,12,12,0,0,1,3.08,4.15,21.26,21.26,0,0,1,1.67,5.35,31.64,31.64,0,0,1,.5,5.36,30.72,30.72,0,0,1-.53,5.35,20,20,0,0,1-1.72,5.29,12,12,0,0,1-3.15,4.05,7.24,7.24,0,0,1-4.78,1.61,10.3,10.3,0,0,1-6.28-2.19,11.63,11.63,0,0,1-.17,1.16,6.89,6.89,0,0,1-.34,1.19,2.64,2.64,0,0,1-.61.93,1.49,1.49,0,0,1-1,.37,2.53,2.53,0,0,1-.78-.19,1.89,1.89,0,0,1-.87-.88,7.3,7.3,0,0,1-.61-1.83c-.17-.79-.32-1.68-.43-2.65s-.2-2-.26-3-.11-2.08-.14-3.07,0-1.9-.06-2.73S188.74,343.31,188.74,342.81Zm16.17-1.39a36.8,36.8,0,0,0-.32-5.17,24.46,24.46,0,0,0-.94-4.21,10.22,10.22,0,0,0-1.41-2.87,2.23,2.23,0,0,0-1.72-1.06,4.93,4.93,0,0,0-1.78.34,9.14,9.14,0,0,0-1.73.89,7.64,7.64,0,0,0-1.52,1.33,8,8,0,0,0-1.12,1.61c.06,1.91.11,3.78.15,5.62s.07,3.71.06,5.62q0,1.91-.06,4c0,1.42-.09,2.78-.15,4.08a7.78,7.78,0,0,0,2.67,2.13,7.52,7.52,0,0,0,3.31.81,2.2,2.2,0,0,0,1.68-.79,7.38,7.38,0,0,0,1.23-2,15,15,0,0,0,.83-2.72c.21-1,.38-2,.5-3s.2-1.89.25-2.7S204.91,341.88,204.91,341.42Z"/><path class="cls-1" d="M212.7,342.5a1.54,1.54,0,0,1,.37-1,1.61,1.61,0,0,1,.9-.53c.85-.1,1.69-.19,2.54-.26s1.69-.1,2.53-.1a9.64,9.64,0,0,1,1.83.17,4.1,4.1,0,0,1,1.51.58,3.13,3.13,0,0,1,1,1.2,4.26,4.26,0,0,1,.38,2,6.66,6.66,0,0,1-.64,2.75,15,15,0,0,1-1.59,2.75,26.08,26.08,0,0,1-2,2.51q-1.1,1.2-2,2l1.29,0c.54,0,1.09-.06,1.66-.13s1.11-.16,1.61-.26a3.5,3.5,0,0,0,1.14-.42,1.33,1.33,0,0,1,.83-.32,1.36,1.36,0,0,1,1.05.45,1.63,1.63,0,0,1,.41,1.14,1.65,1.65,0,0,1-.88,1.46,6.78,6.78,0,0,1-2.05.84,13.6,13.6,0,0,1-2.41.37c-.83.05-1.49.07-2,.07s-1.14,0-1.85-.11a8,8,0,0,1-2.07-.48,4.78,4.78,0,0,1-1.7-1.07,2.48,2.48,0,0,1-.71-1.85,5.23,5.23,0,0,1,.91-2.54,27.2,27.2,0,0,1,2.13-3c.81-1,1.63-2,2.44-2.86s1.43-1.59,1.86-2.09c-.78,0-1.63,0-2.53.1s-1.76.16-2.54.26a1.3,1.3,0,0,1-1-.48A1.71,1.71,0,0,1,212.7,342.5Z"/><g id="Layer_2-2" data-name="Layer 2"><g id="Layer_1-2-2" data-name="Layer 1-2"><g id="Layer_2-2-2" data-name="Layer 2-2"><g id="Layer_1-2-2-2" data-name="Layer 1-2-2"><path class="cls-1" d="M151,266.83H303.35c26.39,0,48-22,46.43-48.31a45.61,45.61,0,0,0-45.53-42.89h0A42.18,42.18,0,0,0,293.53,177a4.47,4.47,0,0,1-3.43-.67,4,4,0,0,1-1.84-3.07,64.92,64.92,0,0,0-72.89-55.81l-.66.1a65.83,65.83,0,0,0-55.17,66.13V189a4.58,4.58,0,0,1-1.29,3.62,4.15,4.15,0,0,1-3.49,1.22h-3.92a36.78,36.78,0,0,0,0,73.19m-.3-82.69v-.74A73.39,73.39,0,0,1,295.66,167.2a45.39,45.39,0,0,1,8.23-.74,54.84,54.84,0,0,1,0,109.37H150.73a45.75,45.75,0,0,1,0-91.32"/><path class="cls-1" d="M64,139.49a71.61,71.61,0,0,1,70.54-72.66h0a66.2,66.2,0,0,1,57.6,30.71,4.53,4.53,0,0,1-1.29,6.14,4.36,4.36,0,0,1-6.05-1.16l-.09-.13a57.47,57.47,0,0,0-50.23-26.9,62.66,62.66,0,0,0-61.85,63.43,1.34,1.34,0,0,0,0,.2,63.85,63.85,0,0,0,28.43,53.61,4.74,4.74,0,0,1,1.35,6.14A4.31,4.31,0,0,1,98.68,201a4.71,4.71,0,0,1-2.33-.68A73.06,73.06,0,0,1,64,139.42"/><path class="cls-1" d="M134,44.83a4.39,4.39,0,0,1-4.44-4.35h0V4.55a4.5,4.5,0,1,1,9,0h0v35.8a4.39,4.39,0,0,1-4.31,4.48h0"/><path class="cls-1" d="M85.85,58.55a5,5,0,0,1-2.27.68,4.49,4.49,0,0,1-3.75-2.15L61.71,26.37a4.67,4.67,0,0,1,.93-6.14,4.23,4.23,0,0,1,5.89,1.08,3.89,3.89,0,0,1,.25.4h0L87.2,52.41a4.66,4.66,0,0,1-1.47,6.14"/><path class="cls-1" d="M49.74,96.26a4.16,4.16,0,0,1-2.09-.55L17.25,78.76a4.61,4.61,0,0,1-1.78-6.14,4.41,4.41,0,0,1,5.94-2l.2.1,30.28,17A4.43,4.43,0,0,1,54,93.62l-.13.25h0a4.17,4.17,0,0,1-3.8,2.39"/><path class="cls-1" d="M4,132.83H38a4.53,4.53,0,0,1,0,9H4a4.53,4.53,0,0,1,0-9"/><path class="cls-1" d="M17.25,197.9,48,180.76a4.31,4.31,0,0,1,6,1.1l.16.25a4.56,4.56,0,0,1-1.29,6.15l-.55.3-30.71,17.2a4.3,4.3,0,0,1-6-1.06l-.15-.23a4.66,4.66,0,0,1,1.23-6.14l.49-.31"/><path class="cls-1" d="M250.07,77.53l-30.65,17.2a4.49,4.49,0,0,1-2.15.55,4.61,4.61,0,0,1-2.09-8.48l30.71-17.13a4.17,4.17,0,0,1,5.73,1.42,1.62,1.62,0,0,1,.1.18h0a4.47,4.47,0,0,1-1.67,6.11l-.05,0"/><path class="cls-1" d="M79.46,218.29a4.37,4.37,0,0,1,6-1.52l.16.1A4.43,4.43,0,0,1,87.05,223l0,.06h0l-18.43,30.7a4.34,4.34,0,0,1-3.74,2.15,3.92,3.92,0,0,1-2.34-.74A4.54,4.54,0,0,1,61.16,249Z"/><path class="cls-1" d="M187.86,57.14a4.14,4.14,0,0,1-3.63,2.15,4.42,4.42,0,0,1-3.68-6.88L199,21.71a4.42,4.42,0,0,1,6.14-.56,4.62,4.62,0,0,1,1.17,5.41Z"/></g></g></g></g></g></g></svg>