<svg xmlns="http://www.w3.org/2000/svg" viewBox="0 0 60.02 47.02"><defs><style>.cls-1{fill:#fff;stroke:#fff;stroke-miterlimit:10;stroke-width:2px;}</style></defs><title>icon4</title><g id="Layer_2" data-name="Layer 2"><g id="Layer_1-2" data-name="Layer 1"><g id="Layer_2-2" data-name="Layer 2"><g id="Layer_1-2-2" data-name="Layer 1-2"><path class="cls-1" d="M25.77,44.53h25a7.44,7.44,0,0,0,0-14.88h0a6.89,6.89,0,0,0-1.75.23.73.73,0,0,1-.56-.11.66.66,0,0,1-.3-.5,10.59,10.59,0,0,0-12-9.09,10.74,10.74,0,0,0-9,10.79v.86a.75.75,0,0,1-.21.59.68.68,0,0,1-.57.2h-.64a6,6,0,0,0,0,11.94m0-13.41V31a11.95,11.95,0,0,1,23.63-2.67,7.5,7.5,0,0,1,1.34-.12,8.93,8.93,0,0,1,0,17.81H25.77a7.45,7.45,0,0,1,0-14.87"/><path class="cls-1" d="M11.59,23.77A11.66,11.66,0,0,1,23.08,11.94h0a10.78,10.78,0,0,1,9.38,5,.74.74,0,0,1-.21,1,.71.71,0,0,1-1-.21,9.36,9.36,0,0,0-8.18-4.38A10.2,10.2,0,0,0,13,23.71a10.4,10.4,0,0,0,4.63,8.73.77.77,0,0,1,.22,1,.7.7,0,0,1-.61.34.76.76,0,0,1-.38-.11,11.9,11.9,0,0,1-5.27-9.91"/><path class="cls-1" d="M23,8.32a.72.72,0,0,1-.73-.71V1.76a.74.74,0,1,1,1.48,0V7.59a.72.72,0,0,1-.71.73"/><path class="cls-1" d="M15.15,10.61a.83.83,0,0,1-.37.11.73.73,0,0,1-.61-.35l-2.95-5a.76.76,0,0,1,.15-1,.69.69,0,0,1,1,.24h0l3,5a.76.76,0,0,1-.24,1"/><path class="cls-1" d="M9.27,16.75a.67.67,0,0,1-.34-.09L4,13.9a.75.75,0,0,1-.29-1,.72.72,0,0,1,1-.3l4.93,2.76a.72.72,0,0,1,.32,1l0,0a.68.68,0,0,1-.62.39"/><path class="cls-1" d="M1.74,22.74h5.7a.76.76,0,0,1,0,1.51H1.74a.76.76,0,0,1,0-1.51"/><path class="cls-1" d="M4,33.3l5-2.79a.7.7,0,0,1,1,.22.74.74,0,0,1-.21,1l-.09.05-5,2.8a.7.7,0,0,1-1-.21.76.76,0,0,1,.2-1L4,33.3"/><path class="cls-1" d="M41.89,13.7l-5,2.81a.73.73,0,0,1-.35.09.75.75,0,0,1-.34-1.38l5-2.79a.68.68,0,0,1,.95.26v0a.73.73,0,0,1-.28,1"/><path class="cls-1" d="M14.11,36.62a.71.71,0,0,1,1-.23.72.72,0,0,1,.23,1v0l-3,5a.71.71,0,0,1-.61.35.64.64,0,0,1-.38-.12.74.74,0,0,1-.22-1Z"/><path class="cls-1" d="M31.76,10.38a.67.67,0,0,1-.59.35.72.72,0,0,1-.6-1.12l3-5a.72.72,0,0,1,1-.09.75.75,0,0,1,.19.88Z"/></g></g></g></g></svg>